<?xml version="1.0" encoding="UTF-8"?>
<!DOCTYPE svg PUBLIC "-//W3C//DTD SVG 1.1//EN" "http://www.w3.org/Graphics/SVG/1.1/DTD/svg11.dtd">
<!-- Creator: CorelDRAW 2020 (64 Bit Sem fins comerciais) -->
<svg xmlns="http://www.w3.org/2000/svg" xml:space="preserve" width="500px" height="365px" version="1.1" style="shape-rendering:geometricPrecision; text-rendering:geometricPrecision; image-rendering:optimizeQuality; fill-rule:evenodd; clip-rule:evenodd"
viewBox="0 0 499.64 364.74"
 xmlns:xlink="http://www.w3.org/1999/xlink"
 xmlns:xodm="http://www.corel.com/coreldraw/odm/2003">
 <defs>
  <style type="text/css">
   <![CDATA[
    .fil0 {fill:none}
    .fil2 {fill:#FEFEFE}
    .fil5 {fill:url(#id0)}
    .fil4 {fill:url(#id1)}
    .fil6 {fill:url(#id2)}
    .fil3 {fill:url(#id3)}
    .fil1 {fill:url(#id4)}
    .fil7 {fill:url(#id5)}
   ]]>
  </style>
  <linearGradient id="id0" gradientUnits="userSpaceOnUse" x1="183.64" y1="315.25" x2="183.01" y2="302.38">
   <stop offset="0" style="stop-opacity:1; stop-color:#008FD2"/>
   <stop offset="1" style="stop-opacity:1; stop-color:#395BA7"/>
  </linearGradient>
  <linearGradient id="id1" gradientUnits="userSpaceOnUse" x1="296.87" y1="138.87" x2="294.45" y2="129.99">
   <stop offset="0" style="stop-opacity:1; stop-color:#00A05C"/>
   <stop offset="1" style="stop-opacity:1; stop-color:#65BC50"/>
  </linearGradient>
  <linearGradient id="id2" gradientUnits="userSpaceOnUse" x1="230.26" y1="285.82" x2="215.08" y2="270.11">
   <stop offset="0" style="stop-opacity:1; stop-color:#91D8F7"/>
   <stop offset="1" style="stop-opacity:1; stop-color:#0098DA"/>
  </linearGradient>
  <linearGradient id="id3" gradientUnits="userSpaceOnUse" x1="252.74" y1="95.66" x2="259.21" y2="105.08">
   <stop offset="0" style="stop-opacity:1; stop-color:#D2E28B"/>
   <stop offset="1" style="stop-opacity:1; stop-color:#A8CF45"/>
  </linearGradient>
  <linearGradient id="id4" gradientUnits="userSpaceOnUse" x1="24.06" y1="265.24" x2="24.07" y2="146.62">
   <stop offset="0" style="stop-opacity:1; stop-color:#000957"/>
   <stop offset="0.501961" style="stop-opacity:1; stop-color:#2B40AE"/>
   <stop offset="1" style="stop-opacity:1; stop-color:#000957"/>
  </linearGradient>
  <radialGradient id="id5" gradientUnits="userSpaceOnUse" gradientTransform="matrix(1.20513 1.49482 -1.49482 1.20513 -1 -636)" cx="417.98" cy="56.74" r="19.92" fx="417.98" fy="56.74">
   <stop offset="0" style="stop-opacity:1; stop-color:#FFCC29"/>
   <stop offset="1" style="stop-opacity:1; stop-color:#F58634"/>
  </radialGradient>
 </defs>
 <g id="Camada_x0020_1">
  <metadata id="CorelCorpID_0Corel-Layer"/>
  <rect class="fil0" width="499.64" height="364.74"/>
  <path class="fil1" d="M24.06 146.62l451.52 0c11.86,0 21.57,10.43 21.57,23.18l0 72.26c0,12.75 -9.71,23.18 -21.57,23.18l-451.52 0c-11.86,0 -21.56,-10.43 -21.56,-23.18l0 -72.26c0,-12.75 9.7,-23.18 21.56,-23.18l0 0z"/>
  <path class="fil2" d="M48.47 177.27l16.94 0c5.28,0 9.38,1.54 12.28,4.63 2.93,3.07 4.37,6.74 4.37,10.97 0,3.41 -0.94,6.35 -2.84,8.8 -1.9,2.44 -4.62,4.03 -8.15,4.75l0 0.15c1.98,0.81 3.72,2.84 5.2,6.09l7.6 16.49 -11.6 0 -4.7 -10.51c-2.1,-4.65 -3.72,-7.57 -4.88,-8.73 -1.16,-1.16 -3.03,-1.74 -5.62,-1.74l-2.24 0 -2.75 20.98 -10.5 0 6.89 -51.88zm9.34 8.69l-1.88 14.15 5.2 0c3.19,0 5.66,-0.71 7.43,-2.13 1.77,-1.43 2.65,-3.23 2.65,-5.41 0,-2.06 -0.73,-3.67 -2.19,-4.84 -1.46,-1.18 -3.49,-1.77 -6.09,-1.77l-5.12 0zm60.32 27.37l-21.51 0c-0.23,2.72 0.36,4.89 1.77,6.5 1.41,1.61 3.33,2.41 5.76,2.41 2.69,0 6.75,-1.18 12.17,-3.52l-1.73 8.6c-4.27,1.66 -8.08,2.5 -11.43,2.5 -4.97,0 -8.95,-1.52 -11.91,-4.58 -2.97,-3.04 -4.46,-7.11 -4.46,-12.2 0,-5.29 1.73,-9.78 5.2,-13.48 3.47,-3.68 7.66,-5.53 12.59,-5.53 4.26,0 7.68,1.31 10.24,3.97 2.56,2.67 3.84,6.18 3.84,10.54 0,1.53 -0.18,3.13 -0.53,4.79zm-20.55 -5.95l11.49 0c0.08,-0.41 0.1,-0.83 0.1,-1.25 0,-1.52 -0.43,-2.74 -1.3,-3.66 -0.87,-0.93 -2.04,-1.4 -3.5,-1.4 -3.14,0 -5.4,2.11 -6.79,6.31zm48.57 -10.24l-0.77 8.13c-1.7,-0.89 -3.47,-1.6 -5.31,-2.12 -1.84,-0.52 -3.24,-0.77 -4.2,-0.77 -1.44,0 -2.17,0.51 -2.17,1.52 0,1.01 1.31,2.53 3.89,4.56 2.97,2.33 4.89,4.27 5.75,5.83 0.87,1.56 1.29,3.12 1.29,4.68 0,3.12 -1.15,5.69 -3.44,7.73 -2.31,2.03 -5.25,3.04 -8.86,3.04 -3.76,0 -7.53,-1.04 -11.36,-3.11l1.35 -7.66c4.01,1.61 7,2.42 8.98,2.42 2.15,0 3.21,-0.63 3.21,-1.9 0,-1.07 -1.42,-2.73 -4.27,-4.99 -2.85,-2.26 -4.69,-4.07 -5.52,-5.43 -0.82,-1.34 -1.24,-2.64 -1.24,-3.88 0,-3.28 1.16,-5.97 3.45,-8.05 2.3,-2.08 5.25,-3.11 8.86,-3.11 3.42,0 6.87,1.03 10.36,3.11zm21.66 -3.11c4.79,0 8.7,1.49 11.75,4.49 3.04,3.02 4.56,6.94 4.56,11.77 0,5.49 -1.8,10.12 -5.4,13.88 -3.59,3.76 -8.01,5.65 -13.27,5.65 -4.67,0 -8.6,-1.61 -11.8,-4.83 -3.2,-3.22 -4.79,-7.16 -4.79,-11.81 0,-5.22 1.86,-9.72 5.59,-13.5 3.72,-3.78 8.18,-5.65 13.36,-5.65zm-2.29 27.44c2.47,0 4.5,-1.21 6.08,-3.59 1.58,-2.4 2.37,-5.02 2.37,-7.9 0,-2.27 -0.61,-4.1 -1.8,-5.51 -1.21,-1.4 -2.8,-2.09 -4.78,-2.09 -2.62,0 -4.67,1.23 -6.17,3.69 -1.5,2.47 -2.24,5.03 -2.24,7.7 0,2.33 0.66,4.2 1.98,5.59 1.31,1.4 2.83,2.11 4.56,2.11zm36.65 -26.86l-0.75 4.94 0.15 0.15c2.92,-3.79 5.59,-5.67 7.99,-5.67 1.85,0 3.79,1.25 5.84,3.77l-4.56 9.51c-1.58,-2.47 -3.13,-3.72 -4.64,-3.72 -1.29,0 -2.59,0.71 -3.88,2.12 -1.31,1.42 -1.98,2.38 -2.05,2.9l-2.73 20.54 -9.79 0 4.62 -34.54 9.8 0zm32.3 -7.28l-1.38 7.28 7.25 0 -1.31 7.62 -7.22 0 -1.9 11.17c-0.16,0.97 -0.24,1.86 -0.24,2.68 0,3.04 0.97,4.56 2.93,4.56 1.18,0 3.06,-0.69 5.66,-2.08l0 9.07c-2.89,1.45 -5.69,2.19 -8.43,2.19 -3.17,0 -5.68,-1.06 -7.5,-3.18 -1.84,-2.12 -2.74,-4.86 -2.74,-8.23 0,-1.04 0.09,-2.05 0.27,-3.04l2.31 -13.14 -6.65 0 1.23 -7.62 6.65 0 1.17 -7.28 9.9 0zm31.38 9.81l-0.77 8.13c-1.71,-0.89 -3.47,-1.6 -5.31,-2.12 -1.84,-0.52 -3.24,-0.77 -4.2,-0.77 -1.44,0 -2.17,0.51 -2.17,1.52 0,1.01 1.31,2.53 3.89,4.56 2.97,2.33 4.89,4.27 5.75,5.83 0.87,1.56 1.29,3.12 1.29,4.68 0,3.12 -1.15,5.69 -3.44,7.73 -2.31,2.03 -5.25,3.04 -8.86,3.04 -3.76,0 -7.53,-1.04 -11.36,-3.11l1.35 -7.66c4.01,1.61 7,2.42 8.98,2.42 2.15,0 3.21,-0.63 3.21,-1.9 0,-1.07 -1.42,-2.73 -4.27,-4.99 -2.85,-2.26 -4.7,-4.07 -5.52,-5.43 -0.82,-1.34 -1.24,-2.64 -1.24,-3.88 0,-3.28 1.16,-5.97 3.45,-8.05 2.3,-2.08 5.25,-3.11 8.86,-3.11 3.42,0 6.87,1.03 10.36,3.11zm31.44 -19.87l15.71 0c5.37,0 9.45,1.14 12.25,3.4 2.79,2.26 4.19,5.32 4.19,9.15 0,5.13 -2.39,8.97 -7.19,11.56 2.88,0.91 5.13,2.53 6.76,4.85 1.63,2.33 2.44,4.94 2.44,7.85 0,3.95 -1.52,7.45 -4.55,10.5 -3.03,3.05 -7.16,4.57 -12.38,4.57l-24.19 0 6.96 -51.88zm9.41 8.69l-1.67 11.4 7.11 0c2.24,0 3.97,-0.56 5.18,-1.67 1.22,-1.12 1.82,-2.62 1.82,-4.49 0,-3.5 -2.3,-5.24 -6.93,-5.24l-5.51 0zm-2.76 20.06l-2.08 14.47 9.97 0c2.84,0 5.02,-0.67 6.51,-2.04 1.5,-1.36 2.25,-3.22 2.25,-5.56 0,-2.18 -0.82,-3.87 -2.47,-5.07 -1.65,-1.21 -3.89,-1.8 -6.72,-1.8l-7.46 0zm44.26 -11.41l-0.75 4.94 0.15 0.15c2.92,-3.79 5.59,-5.67 7.99,-5.67 1.85,0 3.79,1.25 5.84,3.77l-4.56 9.51c-1.58,-2.47 -3.13,-3.72 -4.64,-3.72 -1.29,0 -2.59,0.71 -3.88,2.12 -1.31,1.42 -1.98,2.38 -2.06,2.9l-2.72 20.54 -9.79 0 4.62 -34.54 9.8 0zm45.64 0.56l-4.57 33.98 -9.76 0 0.43 -3.2c-3.06,2.58 -6.22,3.87 -9.48,3.87 -3.32,0 -6.08,-1.39 -8.26,-4.16 -2.17,-2.77 -3.27,-6.32 -3.27,-10.66 0,-6.2 2.06,-11.23 6.18,-15.13 4.1,-3.91 9.99,-5.84 17.66,-5.84 3.81,0 7.51,0.38 11.07,1.14zm-12.98 23.95l2.19 -16.45c-0.73,-0.08 -1.44,-0.11 -2.12,-0.11 -3.92,0 -6.86,1.24 -8.86,3.73 -1.99,2.49 -2.99,5.57 -2.99,9.23 0,2.08 0.42,3.7 1.28,4.88 0.84,1.18 2.02,1.76 3.5,1.76 2.35,0 4.68,-1.01 7,-3.04zm40.19 -21.98l-0.77 8.13c-1.7,-0.89 -3.47,-1.6 -5.31,-2.12 -1.84,-0.52 -3.24,-0.77 -4.2,-0.77 -1.44,0 -2.16,0.51 -2.16,1.52 0,1.01 1.3,2.53 3.88,4.56 2.97,2.33 4.89,4.27 5.75,5.83 0.87,1.56 1.29,3.12 1.29,4.68 0,3.12 -1.15,5.69 -3.44,7.73 -2.3,2.03 -5.25,3.04 -8.86,3.04 -3.75,0 -7.53,-1.04 -11.36,-3.11l1.35 -7.66c4.01,1.61 7.01,2.42 8.98,2.42 2.15,0 3.22,-0.63 3.22,-1.9 0,-1.07 -1.43,-2.73 -4.28,-4.99 -2.85,-2.26 -4.69,-4.07 -5.51,-5.43 -0.82,-1.34 -1.25,-2.64 -1.25,-3.88 0,-3.28 1.16,-5.97 3.46,-8.05 2.29,-2.08 5.25,-3.11 8.86,-3.11 3.41,0 6.86,1.03 10.35,3.11zm7.84 -12.1c0,-1.47 0.5,-2.71 1.49,-3.75 0.99,-1.04 2.17,-1.56 3.57,-1.56 1.41,0 2.61,0.52 3.61,1.56 0.99,1.04 1.48,2.28 1.48,3.75 0,1.48 -0.49,2.74 -1.48,3.78 -1,1.04 -2.2,1.56 -3.61,1.56 -1.4,0 -2.58,-0.52 -3.57,-1.56 -0.99,-1.04 -1.49,-2.3 -1.49,-3.78zm8.84 9.57l-4.64 34.54 -9.79 0 4.64 -34.54 9.79 0zm20.36 -17.34l-6.97 51.88 -9.76 0 6.94 -51.88 9.79 0z"/>
  <path class="fil3" d="M445.13 115.99c-138.61,51.07 -159.89,-124.66 -258.32,-1.03 94.83,-82.47 132.2,66.46 258.32,1.03l0 0z"/>
  <path class="fil4" d="M486.25 148.04c-138.61,52.4 -159.89,-127.93 -258.32,-1.06 94.83,-84.63 132.19,68.2 258.32,1.06z"/>
  <path class="fil5" d="M75.08 298.13c138.6,-52.4 159.89,127.92 258.32,1.06 -94.83,84.63 -132.2,-68.2 -258.32,-1.06l0 0z"/>
  <path class="fil6" d="M34.47 265.44c138.61,-52.4 159.89,127.93 258.32,1.06 -94.83,84.63 -132.19,-68.19 -258.32,-1.06l0 0z"/>
  <path class="fil7" d="M427.26 39.34c15.98,0 29,13.02 29,29 0,15.97 -13.02,29 -29,29 -15.97,0 -29,-13.03 -29,-29 0,-15.98 13.03,-29 29,-29z"/>
 </g>
</svg>
